# xmcd
#
# Track frame offsets: 
#        150
#        13517
#        28412
#        40667
#        55220
#        68785
#        83615
#        98912
#        112045
#        128315
#        142612
#        154590
#        174945
#        188582
#        201162
#        213915
#        226547
#        240385
#        253887
#        265907
#        281947
#        295850
#        309162
#
# Disc length: 4335 seconds
#
# Revision: 1
# Processed by: cddbd v1.5.2PL0 Copyright (c) Steve Scherf et al.
# Submitted via: ExactAudioCopy v1.0b4
#
DISCID=2d10ed17
DTITLE=Duke Ellington - Take The "A" Train
DYEAR=1900
DGENRE=Jazz
TTITLE0=Take The "A" Train
TTITLE1=Jack The Bear
TTITLE2=Ko-Ko
TTITLE3=Cotton Tail
TTITLE4=Harlem Air-Shaft
TTITLE5=In A Mellotone
TTITLE6=Warm Valley
TTITLE7=Jump For Joy
TTITLE8=Just A Settin' And A Rockin'
TTITLE9=Perdido
TTITLE10=The "C" Jam Blues
TTITLE11=Come Sunday
TTITLE12=Prelude To A Kiss
TTITLE13=Caravan
TTITLE14=Black And Tan Fantasy
TTITLE15=Mood Indigo
TTITLE16=In A Sentimental Mood
TTITLE17=It Don't Mean A Thing
TTITLE18=Sophisticated Lady
TTITLE19=Solitude
TTITLE20=Mr. J. B. Blues
TTITLE21=Rockin' In Rhythm
TTITLE22=The Mooche
EXTD=
EXTT0=
EXTT1=
EXTT2=
EXTT3=
EXTT4=
EXTT5=
EXTT6=
EXTT7=
EXTT8=
EXTT9=
EXTT10=
EXTT11=
EXTT12=
EXTT13=
EXTT14=
EXTT15=
EXTT16=
EXTT17=
EXTT18=
EXTT19=
EXTT20=
EXTT21=
EXTT22=
PLAYORDER=
